HIERARCHY
ROOT Hips
{
	OFFSET 0.000000 97.167313 0.000000
	CHANNELS 6 Xposition Yposition Zposition Xrotation Yrotation Zrotation
	JOINT Spine
	{
		OFFSET 0.000000 13.784798 0.064400
		CHANNELS 3 Xrotation Yrotation Zrotation
		JOINT Spine1
		{
			OFFSET 0.000000 12.037903 0.404700
			CHANNELS 3 Xrotation Yrotation Zrotation
			JOINT Spine2
			{
				OFFSET 0.000000 17.795601 0.420200
				CHANNELS 3 Xrotation Yrotation Zrotation
				JOINT Neck
				{
					OFFSET 0.000000 39.131302 11.954600
					CHANNELS 3 Xrotation Yrotation Zrotation
					JOINT Head
					{
						OFFSET 0.000000 14.456192 15.627699
						CHANNELS 3 Xrotation Yrotation Zrotation
						JOINT HeadTop_End
						{
							OFFSET 0.000000 15.703506 7.603401
							CHANNELS 3 Xrotation Yrotation Zrotation
							End Site
							{
								OFFSET 0.000000 17.447403 0.000000
							}
						}
					}
				}
				JOINT LeftShoulder
				{
					OFFSET 17.399500 24.608795 1.168800
					CHANNELS 3 Xrotation Yrotation Zrotation
					JOINT LeftArm
					{
						OFFSET 18.980635 5.765305 1.818600
						CHANNELS 3 Xrotation Yrotation Zrotation
						JOINT LeftForeArm
						{
							OFFSET 49.290169 0.000000 0.000000
							CHANNELS 3 Xrotation Yrotation Zrotation
							JOINT LeftHand
							{
								OFFSET 31.562012 0.000000 0.000000
								CHANNELS 3 Xrotation Yrotation Zrotation
								JOINT LeftHandThumb1
								{
									OFFSET 6.133995 -4.388519 7.076070
									CHANNELS 3 Xrotation Yrotation Zrotation
									JOINT LeftHandThumb2
									{
										OFFSET 6.037666 -3.485840 3.485847
										CHANNELS 3 Xrotation Yrotation Zrotation
										JOINT LeftHandThumb3
										{
											OFFSET 6.496506 -3.750763 3.750761
											CHANNELS 3 Xrotation Yrotation Zrotation
											JOINT LeftHandThumb4
											{
												OFFSET 5.616882 -3.242905 3.242910
												CHANNELS 3 Xrotation Yrotation Zrotation
												End Site
												{
													OFFSET -1.254608 7.132141 0.375429
												}
											}
										}
									}
								}
								JOINT LeftHandPinky1
								{
									OFFSET 18.920792 -0.453171 -11.426712
									CHANNELS 3 Xrotation Yrotation Zrotation
									JOINT LeftHandPinky2
									{
										OFFSET 4.919586 0.000000 0.000000
										CHANNELS 3 Xrotation Yrotation Zrotation
										JOINT LeftHandPinky3
										{
											OFFSET 5.233047 0.000000 0.000000
											CHANNELS 3 Xrotation Yrotation Zrotation
											JOINT LeftHandPinky4
											{
												OFFSET 5.571716 0.000000 0.000000
												CHANNELS 3 Xrotation Yrotation Zrotation
												End Site
												{
													OFFSET -3.459808 4.342407 -0.466164
												}
											}
										}
									}
								}
								JOINT LeftHandRing1
								{
									OFFSET 22.726120 -0.094986 -6.500475
									CHANNELS 3 Xrotation Yrotation Zrotation
									JOINT LeftHandRing2
									{
										OFFSET 6.408615 0.000000 0.000000
										CHANNELS 3 Xrotation Yrotation Zrotation
										JOINT LeftHandRing3
										{
											OFFSET 6.150223 0.000000 0.000000
											CHANNELS 3 Xrotation Yrotation Zrotation
											JOINT LeftHandRing4
											{
												OFFSET 6.145386 0.000000 0.000000
												CHANNELS 3 Xrotation Yrotation Zrotation
												End Site
												{
													OFFSET -3.671402 4.923981 -0.202372
												}
											}
										}
									}
								}
								JOINT LeftHandMiddle1
								{
									OFFSET 23.373947 0.000000 0.000001
									CHANNELS 3 Xrotation Yrotation Zrotation
									JOINT LeftHandMiddle2
									{
										OFFSET 6.996567 0.000000 0.000000
										CHANNELS 3 Xrotation Yrotation Zrotation
										JOINT LeftHandMiddle3
										{
											OFFSET 7.015945 0.000000 0.000000
											CHANNELS 3 Xrotation Yrotation Zrotation
											JOINT LeftHandMiddle4
											{
												OFFSET 7.721573 0.000000 0.000000
												CHANNELS 3 Xrotation Yrotation Zrotation
												End Site
												{
													OFFSET -4.651108 6.158463 0.251582
												}
											}
										}
									}
								}
								JOINT LeftHandIndex1
								{
									OFFSET 21.310577 -0.490082 6.209344
									CHANNELS 3 Xrotation Yrotation Zrotation
									JOINT LeftHandIndex2
									{
										OFFSET 7.536453 0.000000 0.000000
										CHANNELS 3 Xrotation Yrotation Zrotation
										JOINT LeftHandIndex3
										{
											OFFSET 7.512344 0.000000 0.000000
											CHANNELS 3 Xrotation Yrotation Zrotation
											JOINT LeftHandIndex4
											{
												OFFSET 10.212402 0.000000 0.000001
												CHANNELS 3 Xrotation Yrotation Zrotation
												End Site
												{
													OFFSET -5.180801 8.690506 1.388433
												}
											}
										}
									}
								}
							}
						}
					}
				}
				JOINT RightShoulder
				{
					OFFSET -17.399500 24.608795 1.168800
					CHANNELS 3 Xrotation Yrotation Zrotation
					JOINT RightArm
					{
						OFFSET -18.980635 5.765305 1.818600
						CHANNELS 3 Xrotation Yrotation Zrotation
						JOINT RightForeArm
						{
							OFFSET -49.290169 0.000000 0.000000
							CHANNELS 3 Xrotation Yrotation Zrotation
							JOINT RightHand
							{
								OFFSET -31.562012 0.000000 0.000000
								CHANNELS 3 Xrotation Yrotation Zrotation
								JOINT RightHandThumb1
								{
									OFFSET -6.133995 -4.388519 7.076070
									CHANNELS 3 Xrotation Yrotation Zrotation
									JOINT RightHandThumb2
									{
										OFFSET -6.037666 -3.485840 3.485847
										CHANNELS 3 Xrotation Yrotation Zrotation
										JOINT RightHandThumb3
										{
											OFFSET -6.496506 -3.750763 3.750761
											CHANNELS 3 Xrotation Yrotation Zrotation
											JOINT RightHandThumb4
											{
												OFFSET -5.616882 -3.242905 3.242910
												CHANNELS 3 Xrotation Yrotation Zrotation
												End Site
												{
													OFFSET 1.254608 7.132141 0.375429
												}
											}
										}
									}
								}
								JOINT RightHandIndex1
								{
									OFFSET -21.310577 -0.490082 6.209344
									CHANNELS 3 Xrotation Yrotation Zrotation
									JOINT RightHandIndex2
									{
										OFFSET -7.536453 0.000000 0.000000
										CHANNELS 3 Xrotation Yrotation Zrotation
										JOINT RightHandIndex3
										{
											OFFSET -7.512344 0.000000 0.000000
											CHANNELS 3 Xrotation Yrotation Zrotation
											JOINT RightHandIndex4
											{
												OFFSET -10.212402 0.000000 0.000001
												CHANNELS 3 Xrotation Yrotation Zrotation
												End Site
												{
													OFFSET 5.180801 8.690506 1.388433
												}
											}
										}
									}
								}
								JOINT RightHandMiddle1
								{
									OFFSET -23.373947 0.000000 0.000001
									CHANNELS 3 Xrotation Yrotation Zrotation
									JOINT RightHandMiddle2
									{
										OFFSET -6.996567 0.000000 0.000000
										CHANNELS 3 Xrotation Yrotation Zrotation
										JOINT RightHandMiddle3
										{
											OFFSET -7.015945 0.000000 0.000000
											CHANNELS 3 Xrotation Yrotation Zrotation
											JOINT RightHandMiddle4
											{
												OFFSET -7.721573 0.000000 0.000000
												CHANNELS 3 Xrotation Yrotation Zrotation
												End Site
												{
													OFFSET 4.651108 6.158463 0.251582
												}
											}
										}
									}
								}
								JOINT RightHandRing1
								{
									OFFSET -22.726120 -0.094986 -6.500475
									CHANNELS 3 Xrotation Yrotation Zrotation
									JOINT RightHandRing2
									{
										OFFSET -6.408615 0.000000 0.000000
										CHANNELS 3 Xrotation Yrotation Zrotation
										JOINT RightHandRing3
										{
											OFFSET -6.150223 0.000000 0.000000
											CHANNELS 3 Xrotation Yrotation Zrotation
											JOINT RightHandRing4
											{
												OFFSET -6.145386 0.000000 0.000000
												CHANNELS 3 Xrotation Yrotation Zrotation
												End Site
												{
													OFFSET 3.671402 4.923981 -0.202372
												}
											}
										}
									}
								}
								JOINT RightHandPinky1
								{
									OFFSET -18.920792 -0.453171 -11.426712
									CHANNELS 3 Xrotation Yrotation Zrotation
									JOINT RightHandPinky2
									{
										OFFSET -4.919586 0.000000 0.000000
										CHANNELS 3 Xrotation Yrotation Zrotation
										JOINT RightHandPinky3
										{
											OFFSET -5.233047 0.000000 0.000000
											CHANNELS 3 Xrotation Yrotation Zrotation
											JOINT RightHandPinky4
											{
												OFFSET -5.571716 0.000000 0.000000
												CHANNELS 3 Xrotation Yrotation Zrotation
												End Site
												{
													OFFSET 3.459808 4.342407 -0.466164
												}
											}
										}
									}
								}
							}
						}
					}
				}
			}
		}
	}
	JOINT LeftUpLeg
	{
		OFFSET 19.899099 -7.885101 -3.429500
		CHANNELS 3 Xrotation Yrotation Zrotation
		JOINT LeftLeg
		{
			OFFSET 1.745560 -36.997807 10.304700
			CHANNELS 3 Xrotation Yrotation Zrotation
			JOINT LeftFoot
			{
				OFFSET -1.745558 -29.803308 -13.615400
				CHANNELS 3 Xrotation Yrotation Zrotation
				JOINT LeftToeBase
				{
					OFFSET 1.181900 -18.539904 15.226099
					CHANNELS 3 Xrotation Yrotation Zrotation
					JOINT LeftToe_End
					{
						OFFSET -0.863701 1.402801 16.534700
						CHANNELS 3 Xrotation Yrotation Zrotation
						End Site
						{
							OFFSET 0.000000 16.616566 0.000000
						}
					}
				}
			}
		}
	}
	JOINT RightUpLeg
	{
		OFFSET -19.899099 -7.885101 -3.429500
		CHANNELS 3 Xrotation Yrotation Zrotation
		JOINT RightLeg
		{
			OFFSET -1.745560 -36.997807 10.304700
			CHANNELS 3 Xrotation Yrotation Zrotation
			JOINT RightFoot
			{
				OFFSET 1.745558 -29.803308 -13.615400
				CHANNELS 3 Xrotation Yrotation Zrotation
				JOINT RightToeBase
				{
					OFFSET -1.181900 -18.539904 15.226099
					CHANNELS 3 Xrotation Yrotation Zrotation
					JOINT RightToe_End
					{
						OFFSET 0.863701 1.402801 16.534700
						CHANNELS 3 Xrotation Yrotation Zrotation
						End Site
						{
							OFFSET 0.000000 16.616566 0.000000
						}
					}
				}
			}
		}
	}
}
MOTION
Frames: 4
Frame Time: 0.033333
6.275764 35.255112 3.209682 42.389107 6.913602 0.099543 7.148254 0.109858 -0.102110 14.301018 0.134548 -1.811519 14.300996 0.134547 -1.811515 -10.888928 -2.676973 -2.298658 -39.547349 -9.657592 2.704440 -0.000002 0.000000 0.000000 -1.180474 -0.757292 -8.687522 -20.068547 -41.893037 -35.976966 15.277485 -83.419607 11.324776 61.114777 3.227348 9.372467 11.619505 -14.156056 8.390005 4.834439 20.282149 1.864169 -0.000000 -0.000018 -0.000007 -0.000000 0.000001 -0.000001 -3.934368 30.713308 -25.292925 0.389614 -6.596937 -44.304739 -0.000009 0.000002 -0.000002 -0.000001 0.000002 -0.000005 0.058805 9.918795 -18.794877 0.047954 -3.369683 -38.325168 0.000001 -0.000017 -0.000001 0.000004 -0.000000 0.000005 1.051767 -1.920303 -3.876274 -2.167492 -2.124771 -32.682295 0.000007 0.000005 0.000007 0.000001 -0.000001 0.000008 5.903288 -9.781412 4.265866 -0.937199 -0.199852 -27.414417 0.000004 -0.000001 0.000000 -0.000001 0.000003 0.000002 6.868146 27.557409 18.918763 -38.383761 22.922366 20.627899 2.112919 47.130884 -2.168505 44.347073 -14.262752 -67.651897 -34.814147 16.155605 -4.849252 -1.132612 -0.457224 -0.713199 -0.000000 0.000005 -0.000002 0.000000 -0.000001 0.000001 -1.595227 9.245031 -0.284711 0.223981 -1.535910 12.468995 0.000001 0.000009 0.000004 -0.000000 -0.000001 -0.000001 -0.901002 -1.399699 2.742514 -0.829422 0.649945 17.750016 -0.000008 -0.000008 -0.000005 0.000001 0.000001 -0.000006 1.799512 -13.736750 7.288421 0.042464 2.463535 19.117650 0.000002 -0.000004 0.000001 0.000000 0.000000 -0.000007 6.811110 -32.367799 14.558022 -0.571050 6.638300 21.208552 0.000012 0.000008 0.000003 -0.000002 -0.000002 0.000007 -63.606635 -3.790615 70.565799 109.502856 -36.156942 -25.374686 -45.359112 -34.674398 -10.477156 -31.337676 -0.700967 -1.777432 -0.000000 0.000000 -0.000000 -86.675907 -23.109219 -44.440517 136.474201 22.719591 10.783859 -51.300089 36.311205 -37.919035 -35.626796 0.466187 -1.507745 0.000000 0.000000 -0.000000 
6.046162 35.163078 3.418007 47.698261 6.442499 0.596022 7.104855 0.176308 -0.046184 14.216168 0.176038 -1.830766 14.216162 0.176038 -1.830765 -11.509909 -2.572759 -2.147578 -41.907708 -8.945092 2.440992 0.000000 0.000000 0.000000 -0.851573 -1.571159 -10.155503 -22.380006 -38.667955 -37.872217 58.291765 -88.110390 54.282997 59.293787 2.993375 8.580400 12.005797 -13.786051 8.670722 5.013664 20.321312 1.733382 0.000001 -0.000020 -0.000005 0.000001 0.000002 -0.000001 -3.562207 30.639764 -25.458934 0.406319 -6.631780 -44.863517 -0.000008 0.000005 -0.000005 -0.000000 0.000001 -0.000004 0.083974 9.919030 -19.037959 0.037487 -3.408066 -38.839939 0.000001 -0.000015 0.000001 -0.000001 -0.000001 0.000003 1.001927 -1.883666 -4.177485 -2.233051 -2.159045 -33.293433 0.000002 0.000007 0.000007 -0.000003 0.000000 0.000004 6.108413 -9.706301 4.120046 -1.013321 -0.256934 -28.141704 0.000004 -0.000003 -0.000008 -0.000001 0.000001 -0.000003 7.058443 26.947157 16.993152 -35.909296 16.444070 19.399346 2.120117 59.707451 -2.843822 43.708856 -15.549026 -67.989964 -35.350330 16.667555 -5.836180 -1.103270 -0.444284 -0.828941 0.000003 0.000006 -0.000001 0.000003 -0.000003 0.000002 -1.157558 9.988078 -1.398943 0.150507 -1.442726 13.544708 0.000001 0.000011 0.000002 -0.000001 -0.000001 -0.000001 -0.890050 -1.323509 0.578069 -0.887911 0.693923 18.543424 -0.000009 -0.000009 -0.000009 0.000000 0.000000 -0.000004 1.443844 -14.806727 3.631411 0.043498 2.544291 19.936134 0.000003 -0.000006 0.000001 -0.000000 -0.000001 -0.000003 5.757436 -35.023400 8.309867 -0.550661 6.722959 22.101857 0.000008 0.000009 0.000002 0.000002 -0.000001 0.000004 -64.126392 -2.513609 63.884303 109.020228 -34.567458 -23.960811 -54.191021 -28.886502 -14.732624 -29.690067 -0.638455 -1.748004 -0.000000 -0.000002 0.000000 -95.018074 -15.989855 -36.578118 135.805826 20.405363 8.428592 -52.793951 26.064185 -30.600200 -35.229399 0.459491 -1.490755 0.000001 0.000000 0.000000 
5.602246 36.363819 3.457474 54.368466 6.123937 1.885542 7.009983 0.508660 -0.190137 14.037494 0.474513 -2.218216 14.037500 0.474510 -2.218215 -12.749540 -2.338093 -2.209583 -45.638358 -8.709642 1.966012 0.000000 0.000000 0.000000 -0.212279 -3.795405 -12.652003 -28.997650 -37.819475 -39.540993 103.001486 -88.503378 99.174005 59.373960 3.320972 10.721718 12.243939 -12.996040 8.811318 5.521206 20.437685 1.362787 0.000001 -0.000022 -0.000006 -0.000000 -0.000000 -0.000002 -2.667217 30.359525 -26.801963 0.454655 -6.727851 -46.439604 -0.000010 0.000003 -0.000005 -0.000000 0.000001 -0.000004 0.195455 9.846180 -20.570289 0.021409 -3.518819 -40.292847 0.000003 -0.000011 0.000003 0.000001 -0.000001 0.000003 0.756560 -1.842417 -5.820620 -2.423181 -2.253560 -35.018783 0.000005 0.000009 0.000003 -0.000001 0.000000 0.000009 5.973502 -9.646625 2.950406 -1.236106 -0.421130 -30.192588 0.000004 -0.000003 -0.000010 -0.000000 -0.000003 -0.000004 6.701345 25.738461 15.067650 -34.558862 11.309261 19.959985 4.967708 67.931491 -5.625217 42.541703 -19.010769 -70.926631 -34.083337 16.476373 -6.312444 -1.037546 -0.353410 -1.141537 0.000002 0.000004 -0.000005 0.000002 -0.000001 0.000002 -1.103411 10.940850 -2.369686 -0.061017 -1.203210 16.462967 0.000003 0.000011 0.000006 -0.000001 -0.000003 0.000003 -0.970450 -1.253227 -0.122438 -1.057384 0.828737 20.694848 -0.000008 -0.000007 -0.000005 0.000000 0.000000 -0.000001 1.512047 -16.656345 3.124714 0.041476 2.761228 22.162181 0.000004 -0.000005 -0.000002 -0.000001 -0.000002 -0.000003 5.208219 -38.208847 7.775819 -0.499481 6.960696 24.537135 0.000010 0.000008 -0.000000 0.000002 -0.000001 -0.000001 -63.311441 -0.725718 48.713476 107.577030 -27.902479 -19.772981 -68.331302 -14.591176 -19.457781 -23.774927 -0.448333 -2.888143 0.000000 -0.000001 0.000000 -108.980600 -6.111453 -17.416666 133.347996 13.452364 1.423594 -50.915396 2.190070 -17.291056 -32.889598 0.040657 -0.533927 0.000000 -0.000000 -0.000000 
5.271203 39.277046 4.539642 59.577227 5.851072 2.572636 6.875325 0.738003 -0.566292 13.771837 0.489610 -2.830428 13.771861 0.489608 -2.830429 -13.910709 -1.934295 -2.518629 -48.661423 -8.902989 1.829874 0.000001 0.000000 -0.000000 0.448408 -7.071581 -16.126020 -34.640254 -41.058787 -36.807524 19.238469 -85.924046 15.961915 56.422004 5.522565 13.586564 12.135271 -11.911285 8.924237 6.311643 20.627204 0.782841 0.000002 -0.000017 -0.000004 0.000001 0.000001 -0.000001 -1.375588 29.883748 -29.232356 0.523817 -6.879225 -48.882677 -0.000009 0.000005 -0.000005 -0.000001 0.000000 -0.000002 0.390708 9.693128 -23.294232 -0.008240 -3.686502 -42.545750 0.000001 -0.000012 0.000001 -0.000000 0.000000 0.000003 0.346368 -1.787898 -8.693981 -2.724524 -2.395358 -37.693977 0.000005 0.000008 0.000005 0.000000 0.000001 0.000004 5.476523 -9.594034 0.825357 -1.592192 -0.659463 -33.373616 0.000003 -0.000002 -0.000007 0.000001 0.000003 0.000002 5.912766 25.805175 14.853995 -33.517115 12.870685 20.436459 4.315576 62.972534 -4.436500 37.061108 -18.917227 -79.777272 -31.979680 15.856197 -6.947444 -0.911134 -0.217459 -1.613319 0.000004 0.000008 -0.000004 0.000001 -0.000003 0.000002 -1.599560 11.131060 -3.576491 -0.402216 -0.882162 20.760836 0.000003 0.000009 0.000006 -0.000000 -0.000003 -0.000001 -1.127311 -1.649499 -1.085068 -1.322794 1.014248 23.863714 -0.000008 -0.000008 -0.000005 -0.000001 0.000001 -0.000004 2.216951 -18.741291 2.549164 0.031821 3.074278 25.451173 0.000003 -0.000003 0.000005 -0.000001 -0.000000 -0.000003 7.451048 -40.959675 8.651214 -0.433352 7.318826 28.148586 0.000011 0.000008 0.000003 -0.000003 -0.000001 0.000004 -64.064668 -1.545521 32.482812 104.212137 -16.025214 -13.719635 -75.041226 1.364863 -21.114165 -14.886503 -0.098664 -4.537418 0.000000 -0.000002 0.000000 -106.532837 -6.155183 -14.820162 127.205607 10.997936 0.740655 -56.744617 3.105617 -14.386554 -31.121791 0.414954 -1.348818 0.000001 -0.000000 0.000000 
